<?xml version="1.0" encoding="UTF-8"?>
<svg width="24px" height="24px" viewBox="0 0 24 24" version="1.1" xmlns="http://www.w3.org/2000/svg" xmlns:xlink="http://www.w3.org/1999/xlink">
    <!-- Generator: Sketch 53.2 (72643) - https://sketchapp.com -->
    <title>icons/CarIcon</title>
    <desc>Created with Sketch.</desc>
    <g id="icons/CarIcon" stroke="none" stroke-width="1" fill="none" fill-rule="evenodd">
        <path d="M7,18.7863425 L7,19.5 C7,20.3284271 6.32842712,21 5.5,21 C4.67157288,21 4,20.3284271 4,19.5 L4,18.7863425 L3,18.7863425 C2.44771525,18.7863425 2,18.3386273 2,17.7863425 L2,13 C2,11.6855638 2.31089892,10.7013813 3.01710438,10.2586192 C3.14197094,8.18449665 3.91629759,6.49447138 5.34149539,5.24742331 C7.5000183,3.35871576 8.62818114,3 12,3 C15.3066734,3 16.5525677,3.40472851 18.6585046,5.24742331 C20.0376099,6.45414044 20.8034414,8.14292659 20.967438,10.2593503 C21.6548092,10.6982096 21.967285,11.6686452 21.9996925,12.9752039 C22.0331493,14.3240641 22.0331493,15.9333204 21.9998415,17.8041435 C21.9901339,18.3494025 21.5453454,18.7863425 21,18.7863425 L20,18.7863425 L20,19.5 C20,20.3284271 19.3284271,21 18.5,21 C17.6715729,21 17,20.3284271 17,19.5 L17,18.7863425 L7,18.7863425 Z M15.3333333,13.5 C15.7015232,13.5 16,13.9477153 16,14.5 C16,15.0522847 15.7015232,15.5 15.3333333,15.5 L8.66666667,15.5 C8.29847683,15.5 8,15.0522847 8,14.5 C8,13.9477153 8.29847683,13.5 8.66666667,13.5 L15.3333333,13.5 Z M6,15 C5.44771525,15 5,14.5522847 5,14 C5,13.4477153 5.44771525,13 6,13 C6.55228475,13 7,13.4477153 7,14 C7,14.5522847 6.55228475,15 6,15 Z M18,15 C17.4477153,15 17,14.5522847 17,14 C17,13.4477153 17.4477153,13 18,13 C18.5522847,13 19,13.4477153 19,14 C19,14.5522847 18.5522847,15 18,15 Z M4,16.7863425 L20.0148404,16.7863425 C20.0319083,15.3564926 20.0270368,14.1024304 20.0003075,13.0247961 C19.9880438,12.5303675 19.9293977,12.1793971 19.8497306,11.9887791 C19.3735255,11.9169874 19.0066543,11.5092504 19.0000876,11.0132378 C18.9746056,9.08847312 18.416498,7.69320396 17.3414954,6.75257669 C15.6270167,5.25240788 14.850018,5 12,5 C9.08180896,5 8.42150162,5.20995431 6.65850461,6.75257669 C5.52820935,7.74158504 4.9746853,9.12539517 4.99990817,10.9864482 C5.00689421,11.501909 4.6228776,11.9305976 4.1242394,11.9923619 C4.05034259,12.1761477 4,12.5174914 4,13 L4,16.7863425 Z M16.7142857,10 C17.1482237,10 17.5,10.2238576 17.5,10.5 C17.5,10.7761424 17.1482237,11 16.7142857,11 L7.28571429,11 C6.85177627,11 6.5,10.7761424 6.5,10.5 C6.5,10.2238576 6.85177627,10 7.28571429,10 L16.7142857,10 Z" id="Combined-Shape" fill="#79879D" fill-rule="nonzero"></path>
    </g>
</svg>