<?xml version="1.0" encoding="UTF-8"?>
<svg width="24px" height="24px" viewBox="0 0 24 24" version="1.1" xmlns="http://www.w3.org/2000/svg" xmlns:xlink="http://www.w3.org/1999/xlink">
    <!-- Generator: Sketch 52.5 (67469) - http://www.bohemiancoding.com/sketch -->
    <title>icons/HotelIcon</title>
    <desc>Created with Sketch.</desc>
    <g id="icons/HotelIcon" stroke="none" stroke-width="1" fill="none" fill-rule="evenodd">
        <path d="M12,11.0126288 L12,14 L20,14 L20,12 C20,10.8954305 19.1045695,10 18,10 C15.7784987,10 14.1123728,10 13.0016222,10 C12.3338741,10 12,10.3375429 12,11.0126288 Z M4,16 L4,18 C4,18.5522847 3.55228475,19 3,19 C2.44771525,19 2,18.5522847 2,18 L2,6 C2,5.44771525 2.44771525,5 3,5 C3.55228475,5 4,5.44771525 4,6 L4,14 L10,14 L10,9.02014544 C10,8.34004848 10.3366538,8 11.0099613,8 C12.5633032,8 14.8933161,8 18,8 C20.209139,8 22,9.790861 22,12 L22,16 L22,18 C22,18.5522847 21.5522847,19 21,19 C20.4477153,19 20,18.5522847 20,18 L20,16 L10,16 L4,16 Z M7,13 C5.8954305,13 5,12.1045695 5,11 C5,9.8954305 5.8954305,9 7,9 C8.1045695,9 9,9.8954305 9,11 C9,12.1045695 8.1045695,13 7,13 Z" id="Rectangle" fill="#79879D"></path>
    </g>
</svg>