<?xml version="1.0" encoding="UTF-8"?>
<svg width="24px" height="24px" viewBox="0 0 24 24" version="1.1" xmlns="http://www.w3.org/2000/svg" xmlns:xlink="http://www.w3.org/1999/xlink">
    <!-- Generator: Sketch 52.5 (67469) - http://www.bohemiancoding.com/sketch -->
    <title>icons/SearchIcon</title>
    <desc>Created with Sketch.</desc>
    <g id="icons/SearchIcon" stroke="none" stroke-width="1" fill="none" fill-rule="evenodd">
        <path d="M16.4621911,15.0506213 C16.4774869,15.0641631 16.4924674,15.0782538 16.5071068,15.0928932 L20.7071068,19.2928932 C21.0976311,19.6834175 21.0976311,20.3165825 20.7071068,20.7071068 C20.3165825,21.0976311 19.6834175,21.0976311 19.2928932,20.7071068 L15.0928932,16.5071068 C15.0782538,16.4924674 15.0641631,16.4774869 15.0506213,16.4621911 C13.7885724,17.4269107 12.2112123,18 10.5,18 C6.35786438,18 3,14.6421356 3,10.5 C3,6.35786438 6.35786438,3 10.5,3 C14.6421356,3 18,6.35786438 18,10.5 C18,12.2112123 17.4269107,13.7885724 16.4621911,15.0506213 Z M10.5,16 C13.5375661,16 16,13.5375661 16,10.5 C16,7.46243388 13.5375661,5 10.5,5 C7.46243388,5 5,7.46243388 5,10.5 C5,13.5375661 7.46243388,16 10.5,16 Z" id="IconColor" fill="#79879D"></path>
    </g>
</svg>