<?xml version="1.0" encoding="UTF-8"?>
<svg width="24px" height="24px" viewBox="0 0 24 24" version="1.1" xmlns="http://www.w3.org/2000/svg" xmlns:xlink="http://www.w3.org/1999/xlink">
    <!-- Generator: Sketch 52.5 (67469) - http://www.bohemiancoding.com/sketch -->
    <title>icons/TrainIcon</title>
    <desc>Created with Sketch.</desc>
    <g id="icons/TrainIcon" stroke="none" stroke-width="1" fill="none" fill-rule="evenodd">
        <path d="M17.9079245,18.8601582 L19.7784801,21.4347572 C20.103105,21.881565 20.0040561,22.5069346 19.5572484,22.8315595 C19.1104406,23.1561843 18.485071,23.0571355 18.1604461,22.6103277 L17.7170171,22 L6.28298292,22 L5.83955386,22.6103277 C5.51492903,23.0571355 4.88955937,23.1561843 4.44275162,22.8315595 C3.99594387,22.5069346 3.89689504,21.881565 4.22151987,21.4347572 L6.09207555,18.8601582 C4.87903769,18.4754408 4,17.3403755 4,16 L4,8 C4,4.6862915 6.6862915,2 10,2 L14,2 C17.3137085,2 20,4.6862915 20,8 L20,16 C20,17.3403755 19.1209623,18.4754408 17.9079245,18.8601582 Z M15.5373895,19 L8.46261051,19 L7.73606798,20 L16.263932,20 L15.5373895,19 Z M10,4 C7.790861,4 6,5.790861 6,8 L6,16 C6,16.5522847 6.44771525,17 7,17 L17,17 C17.5522847,17 18,16.5522847 18,16 L18,8 C18,5.790861 16.209139,4 14,4 L10,4 Z M10,7 C9.44771525,7 9,7.44771525 9,8 L9,11 L15,11 L15,8 C15,7.44771525 14.5522847,7 14,7 L10,7 Z M10,5 L14,5 C15.6568542,5 17,6.34314575 17,8 L17,13 L7,13 L7,8 C7,6.34314575 8.34314575,5 10,5 Z M16,16 C15.4477153,16 15,15.5522847 15,15 C15,14.4477153 15.4477153,14 16,14 C16.5522847,14 17,14.4477153 17,15 C17,15.5522847 16.5522847,16 16,16 Z M8,16 C7.44771525,16 7,15.5522847 7,15 C7,14.4477153 7.44771525,14 8,14 C8.55228475,14 9,14.4477153 9,15 C9,15.5522847 8.55228475,16 8,16 Z" id="Shape" fill="#79879D"></path>
    </g>
</svg>